MOVIE INFO:
Kijkwijzer: Geweld, Afgeraden voor kinderen jonger dan 12 jaar
Regie: 	Damon O'Steen
Cast: 	Gary Weeks, Brian Tee en Emily-Grace Murray
Genre: 	Actie, Drama, Science Fiction
Land: 	Verenigde Staten
Tijdsduur: 	107 minuten
Plot:
De Derde Wereldoorlog is uitgebroken. Nucleaire aanvallen op de VS hebben het land 200 jaar terug in de tijd gevoerd. De overlevenden zijn besmet met een dodelijk nucleair virus. De VS heten voortaan de United Provinces, en de leiders van de Provinces voeren een waar schrikbewind. Te midden van dit alles zoekt overlever Sean Kalos naar z’n vermiste vrouw. 

MEDIA INFO:
General
Complete name                    : Deadland (2009) - DvDRip (NLSubs) - ACB-Team.avi
Format                           : AVI
Format/Info                      : Audio Video Interleave
File size                        : 1.24 GiB
Duration                         : 1h 47mn
Overall bit rate                 : 1 656 Kbps
Writing application              : VirtualDubMod 1.5.4.1 (build 2178/release)
Writing library                  : VirtualDubMod build 2178/release

Video
ID                               : 0
Format                           : MPEG-4 Visual
Format profile                   : Advanced Simple@L5
Format settings, BVOP            : 1
Format settings, QPel            : No
Format settings, GMC             : No warppoints
Format settings, Matrix          : Custom
Codec ID                         : XVID
Codec ID/Hint                    : XviD
Duration                         : 1h 47mn
Bit rate                         : 1 201 Kbps
Width                            : 720 pixels
Height                           : 304 pixels
Display aspect ratio             : 2.35:1
Frame rate                       : 23.976 fps
Color space                      : YUV
Chroma subsampling               : 4:2:0
Bit depth                        : 8 bits
Scan type                        : Progressive
Compression mode                 : Lossy
Bits/(Pixel*Frame)               : 0.229
Stream size                      : 923 MiB (73%)
Writing library                  : XviD 58

Audio
ID                               : 1
Format                           : AC-3
Format/Info                      : Audio Coding 3
Mode extension                   : CM (complete main)
Codec ID                         : 2000
Duration                         : 1h 47mn
Bit rate mode                    : Constant
Bit rate                         : 448 Kbps
Channel(s)                       : 6 channels
Channel positions                : Front: L C R, Side: L R, LFE
Sampling rate                    : 48.0 KHz
Bit depth                        : 16 bits
Compression mode                 : Lossy
Stream size                      : 344 MiB (27%)
Alignment                        : Split accross interleaves
Interleave, duration             : 96 ms (2.30 video frames)
Interleave, preload duration     : 96 ms

